<svg viewBox="0 0 700 700" xmlns="http://www.w3.org/2000/svg">
<rect width="700" height="700" rx="50" fill="#0b3b35"/>
<circle cx="520" cy="170" r="105" fill="#e8b74b"/>
<path d="M0 520 C120 450 190 560 310 500 C430 440 500 540 700 430 V700 H0Z" fill="#126b59"/>
<path d="M0 600 C130 520 220 650 350 570 C470 500 560 610 700 520 V700 H0Z" fill="#1e8a6e"/>
<g fill="#f7f5ee">
  <rect x="120" y="330" width="90" height="90" rx="14"/>
  <rect x="260" y="300" width="90" height="120" rx="14"/>
  <rect x="400" y="350" width="90" height="70" rx="14"/>
</g>
<g stroke="#dff1e9" stroke-width="8" fill="none" stroke-linecap="round">
  <path d="M165 330v-70l45-35"/>
  <path d="M305 300v-90"/>
  <path d="M445 350v-65"/>
</g>
<text x="55" y="105" fill="#dff1e9" font-family="Arial" font-weight="700" font-size="30">GOA • WASTE → RESOURCE</text>
</svg>
